<svg width="17" height="17" viewBox="0 0 17 17" fill="none" xmlns="http://www.w3.org/2000/svg">
<g clip-path="url(#clip0_38_632)">
<path d="M10.0575 8.51412L16.677 1.89445C17.1077 1.46387 17.1077 0.767678 16.677 0.337096C16.2464 -0.0934853 15.5502 -0.0934853 15.1196 0.337096L8.49992 6.95676L1.88045 0.337096C1.44966 -0.0934853 0.753671 -0.0934853 0.323088 0.337096C-0.107696 0.767678 -0.107696 1.46387 0.323088 1.89445L6.94256 8.51412L0.323088 15.1338C-0.107696 15.5644 -0.107696 16.2606 0.323088 16.6911C0.537673 16.9059 0.819821 17.0138 1.10177 17.0138C1.38371 17.0138 1.66566 16.9059 1.88045 16.6911L8.49992 10.0715L15.1196 16.6911C15.3344 16.9059 15.6163 17.0138 15.8983 17.0138C16.1802 17.0138 16.4622 16.9059 16.677 16.6911C17.1077 16.2606 17.1077 15.5644 16.677 15.1338L10.0575 8.51412Z" fill="white"/>
</g>
<defs>
<clipPath id="clip0_38_632">
<rect width="17" height="17" fill="white"/>
</clipPath>
</defs>
</svg>
